<?xml version="1.0"?>
<svg width="1900" height="852.000000" xmlns="http://www.w3.org/2000/svg">
<style type="text/css">
  <![CDATA[
        polygon.Natural {
            stroke: #080808;
            stroke-width: 2;
            fill: #F7F5F0;
        }

        polygon.DoubleFlat {
            stroke: #080808;
            stroke-width: 2;
            fill: #848591;
        }

        polygon.Sharp {
            stroke: #080808;
            stroke-width: 2;
            fill: #43454D;
        }

        polygon.Flat {
            stroke: #080808;
            stroke-width: 2;
            fill: #43454D;
        }

        polygon.DoubleSharp {
            stroke: #080808;
            stroke-width: 2;
            fill: #848591;
        }

        line.Border {
            stroke: #383838;
            stroke-width: 4;
            stroke-linecap: round;
        }

      ]]>
 </style>
 <g>
   <title>31 Equal Temperament Interface</title>
<polygon id="c0_0" class="Natural" points="28.843750,138.347558 53.250000,152.438513 53.250000,247.232211 28.843750,261.323166 4.437500,247.232211 4.437500,152.438513" />
<polygon id="c0_1" class="Natural" points="28.843750,371.488814 53.250000,385.579769 53.250000,480.373466 28.843750,494.464421 4.437500,480.373466 4.437500,385.579769" />
<polygon id="c0_2" class="Natural" points="28.843750,604.630069 53.250000,618.721024 53.250000,713.514722 28.843750,727.605677 4.437500,713.514722 4.437500,618.721024" />
<polygon id="d0eses_0" class="DoubleFlat" points="57.687500,21.776930 82.093750,35.867885 82.093750,130.661583 57.687500,144.752538 33.281250,130.661583 33.281250,35.867885" />
<polygon id="d0eses_1" class="DoubleFlat" points="57.687500,254.918186 82.093750,269.009141 82.093750,363.802838 57.687500,377.893793 33.281250,363.802838 33.281250,269.009141" />
<polygon id="d0eses_2" class="DoubleFlat" points="57.687500,488.059442 82.093750,502.150397 82.093750,596.944094 57.687500,611.035049 33.281250,596.944094 33.281250,502.150397" />
<polygon id="c0is_0" class="Sharp" points="86.531250,138.347558 110.937500,152.438513 110.937500,247.232211 86.531250,261.323166 62.125000,247.232211 62.125000,152.438513" />
<polygon id="c0is_1" class="Sharp" points="86.531250,371.488814 110.937500,385.579769 110.937500,480.373466 86.531250,494.464421 62.125000,480.373466 62.125000,385.579769" />
<polygon id="c0is_2" class="Sharp" points="86.531250,604.630069 110.937500,618.721024 110.937500,713.514722 86.531250,727.605677 62.125000,713.514722 62.125000,618.721024" />
<polygon id="d0es_0" class="Flat" points="115.375000,21.776930 139.781250,35.867885 139.781250,130.661583 115.375000,144.752538 90.968750,130.661583 90.968750,35.867885" />
<polygon id="d0es_1" class="Flat" points="115.375000,254.918186 139.781250,269.009141 139.781250,363.802838 115.375000,377.893793 90.968750,363.802838 90.968750,269.009141" />
<polygon id="d0es_2" class="Flat" points="115.375000,488.059442 139.781250,502.150397 139.781250,596.944094 115.375000,611.035049 90.968750,596.944094 90.968750,502.150397" />
<polygon id="c0isis_0" class="DoubleSharp" points="144.218750,138.347558 168.625000,152.438513 168.625000,247.232211 144.218750,261.323166 119.812500,247.232211 119.812500,152.438513" />
<polygon id="c0isis_1" class="DoubleSharp" points="144.218750,371.488814 168.625000,385.579769 168.625000,480.373466 144.218750,494.464421 119.812500,480.373466 119.812500,385.579769" />
<polygon id="c0isis_2" class="DoubleSharp" points="144.218750,604.630069 168.625000,618.721024 168.625000,713.514722 144.218750,727.605677 119.812500,713.514722 119.812500,618.721024" />
<polygon id="d0_0" class="Natural" points="173.062500,21.776930 197.468750,35.867885 197.468750,130.661583 173.062500,144.752538 148.656250,130.661583 148.656250,35.867885" />
<polygon id="d0_1" class="Natural" points="173.062500,254.918186 197.468750,269.009141 197.468750,363.802838 173.062500,377.893793 148.656250,363.802838 148.656250,269.009141" />
<polygon id="d0_2" class="Natural" points="173.062500,488.059442 197.468750,502.150397 197.468750,596.944094 173.062500,611.035049 148.656250,596.944094 148.656250,502.150397" />
<polygon id="e0eses_0" class="DoubleFlat" points="201.906250,138.347558 226.312500,152.438513 226.312500,247.232211 201.906250,261.323166 177.500000,247.232211 177.500000,152.438513" />
<polygon id="e0eses_1" class="DoubleFlat" points="201.906250,371.488814 226.312500,385.579769 226.312500,480.373466 201.906250,494.464421 177.500000,480.373466 177.500000,385.579769" />
<polygon id="e0eses_2" class="DoubleFlat" points="201.906250,604.630069 226.312500,618.721024 226.312500,713.514722 201.906250,727.605677 177.500000,713.514722 177.500000,618.721024" />
<polygon id="d0is_0" class="Sharp" points="230.750000,21.776930 255.156250,35.867885 255.156250,130.661583 230.750000,144.752538 206.343750,130.661583 206.343750,35.867885" />
<polygon id="d0is_1" class="Sharp" points="230.750000,254.918186 255.156250,269.009141 255.156250,363.802838 230.750000,377.893793 206.343750,363.802838 206.343750,269.009141" />
<polygon id="d0is_2" class="Sharp" points="230.750000,488.059442 255.156250,502.150397 255.156250,596.944094 230.750000,611.035049 206.343750,596.944094 206.343750,502.150397" />
<polygon id="e0es_0" class="Flat" points="259.593750,138.347558 284.000000,152.438513 284.000000,247.232211 259.593750,261.323166 235.187500,247.232211 235.187500,152.438513" />
<polygon id="e0es_1" class="Flat" points="259.593750,371.488814 284.000000,385.579769 284.000000,480.373466 259.593750,494.464421 235.187500,480.373466 235.187500,385.579769" />
<polygon id="e0es_2" class="Flat" points="259.593750,604.630069 284.000000,618.721024 284.000000,713.514722 259.593750,727.605677 235.187500,713.514722 235.187500,618.721024" />
<polygon id="d0isis_0" class="DoubleSharp" points="288.437500,21.776930 312.843750,35.867885 312.843750,130.661583 288.437500,144.752538 264.031250,130.661583 264.031250,35.867885" />
<polygon id="d0isis_1" class="DoubleSharp" points="288.437500,254.918186 312.843750,269.009141 312.843750,363.802838 288.437500,377.893793 264.031250,363.802838 264.031250,269.009141" />
<polygon id="d0isis_2" class="DoubleSharp" points="288.437500,488.059442 312.843750,502.150397 312.843750,596.944094 288.437500,611.035049 264.031250,596.944094 264.031250,502.150397" />
<polygon id="e0_0" class="Natural" points="317.281250,138.347558 341.687500,152.438513 341.687500,247.232211 317.281250,261.323166 292.875000,247.232211 292.875000,152.438513" />
<polygon id="e0_1" class="Natural" points="317.281250,371.488814 341.687500,385.579769 341.687500,480.373466 317.281250,494.464421 292.875000,480.373466 292.875000,385.579769" />
<polygon id="e0_2" class="Natural" points="317.281250,604.630069 341.687500,618.721024 341.687500,713.514722 317.281250,727.605677 292.875000,713.514722 292.875000,618.721024" />
<polygon id="f0es_0" class="Flat" points="346.125000,21.776930 370.531250,35.867885 370.531250,130.661583 346.125000,144.752538 321.718750,130.661583 321.718750,35.867885" />
<polygon id="f0es_1" class="Flat" points="346.125000,254.918186 370.531250,269.009141 370.531250,363.802838 346.125000,377.893793 321.718750,363.802838 321.718750,269.009141" />
<polygon id="f0es_2" class="Flat" points="346.125000,488.059442 370.531250,502.150397 370.531250,596.944094 346.125000,611.035049 321.718750,596.944094 321.718750,502.150397" />
<polygon id="e0is_0" class="Sharp" points="374.968750,138.347558 399.375000,152.438513 399.375000,247.232211 374.968750,261.323166 350.562500,247.232211 350.562500,152.438513" />
<polygon id="e0is_1" class="Sharp" points="374.968750,371.488814 399.375000,385.579769 399.375000,480.373466 374.968750,494.464421 350.562500,480.373466 350.562500,385.579769" />
<polygon id="e0is_2" class="Sharp" points="374.968750,604.630069 399.375000,618.721024 399.375000,713.514722 374.968750,727.605677 350.562500,713.514722 350.562500,618.721024" />
<polygon id="f0_0" class="Natural" points="403.812500,21.776930 428.218750,35.867885 428.218750,130.661583 403.812500,144.752538 379.406250,130.661583 379.406250,35.867885" />
<polygon id="f0_1" class="Natural" points="403.812500,254.918186 428.218750,269.009141 428.218750,363.802838 403.812500,377.893793 379.406250,363.802838 379.406250,269.009141" />
<polygon id="f0_2" class="Natural" points="403.812500,488.059442 428.218750,502.150397 428.218750,596.944094 403.812500,611.035049 379.406250,596.944094 379.406250,502.150397" />
<polygon id="g0eses_0" class="DoubleFlat" points="432.656250,138.347558 457.062500,152.438513 457.062500,247.232211 432.656250,261.323166 408.250000,247.232211 408.250000,152.438513" />
<polygon id="g0eses_1" class="DoubleFlat" points="432.656250,371.488814 457.062500,385.579769 457.062500,480.373466 432.656250,494.464421 408.250000,480.373466 408.250000,385.579769" />
<polygon id="g0eses_2" class="DoubleFlat" points="432.656250,604.630069 457.062500,618.721024 457.062500,713.514722 432.656250,727.605677 408.250000,713.514722 408.250000,618.721024" />
<polygon id="f0is_0" class="Sharp" points="461.500000,21.776930 485.906250,35.867885 485.906250,130.661583 461.500000,144.752538 437.093750,130.661583 437.093750,35.867885" />
<polygon id="f0is_1" class="Sharp" points="461.500000,254.918186 485.906250,269.009141 485.906250,363.802838 461.500000,377.893793 437.093750,363.802838 437.093750,269.009141" />
<polygon id="f0is_2" class="Sharp" points="461.500000,488.059442 485.906250,502.150397 485.906250,596.944094 461.500000,611.035049 437.093750,596.944094 437.093750,502.150397" />
<polygon id="g0es_0" class="Flat" points="490.343750,138.347558 514.750000,152.438513 514.750000,247.232211 490.343750,261.323166 465.937500,247.232211 465.937500,152.438513" />
<polygon id="g0es_1" class="Flat" points="490.343750,371.488814 514.750000,385.579769 514.750000,480.373466 490.343750,494.464421 465.937500,480.373466 465.937500,385.579769" />
<polygon id="g0es_2" class="Flat" points="490.343750,604.630069 514.750000,618.721024 514.750000,713.514722 490.343750,727.605677 465.937500,713.514722 465.937500,618.721024" />
<polygon id="f0isis_0" class="DoubleSharp" points="519.187500,21.776930 543.593750,35.867885 543.593750,130.661583 519.187500,144.752538 494.781250,130.661583 494.781250,35.867885" />
<polygon id="f0isis_1" class="DoubleSharp" points="519.187500,254.918186 543.593750,269.009141 543.593750,363.802838 519.187500,377.893793 494.781250,363.802838 494.781250,269.009141" />
<polygon id="f0isis_2" class="DoubleSharp" points="519.187500,488.059442 543.593750,502.150397 543.593750,596.944094 519.187500,611.035049 494.781250,596.944094 494.781250,502.150397" />
<polygon id="g0_0" class="Natural" points="548.031250,138.347558 572.437500,152.438513 572.437500,247.232211 548.031250,261.323166 523.625000,247.232211 523.625000,152.438513" />
<polygon id="g0_1" class="Natural" points="548.031250,371.488814 572.437500,385.579769 572.437500,480.373466 548.031250,494.464421 523.625000,480.373466 523.625000,385.579769" />
<polygon id="g0_2" class="Natural" points="548.031250,604.630069 572.437500,618.721024 572.437500,713.514722 548.031250,727.605677 523.625000,713.514722 523.625000,618.721024" />
<polygon id="a0eses_0" class="DoubleFlat" points="576.875000,21.776930 601.281250,35.867885 601.281250,130.661583 576.875000,144.752538 552.468750,130.661583 552.468750,35.867885" />
<polygon id="a0eses_1" class="DoubleFlat" points="576.875000,254.918186 601.281250,269.009141 601.281250,363.802838 576.875000,377.893793 552.468750,363.802838 552.468750,269.009141" />
<polygon id="a0eses_2" class="DoubleFlat" points="576.875000,488.059442 601.281250,502.150397 601.281250,596.944094 576.875000,611.035049 552.468750,596.944094 552.468750,502.150397" />
<polygon id="g0is_0" class="Sharp" points="605.718750,138.347558 630.125000,152.438513 630.125000,247.232211 605.718750,261.323166 581.312500,247.232211 581.312500,152.438513" />
<polygon id="g0is_1" class="Sharp" points="605.718750,371.488814 630.125000,385.579769 630.125000,480.373466 605.718750,494.464421 581.312500,480.373466 581.312500,385.579769" />
<polygon id="g0is_2" class="Sharp" points="605.718750,604.630069 630.125000,618.721024 630.125000,713.514722 605.718750,727.605677 581.312500,713.514722 581.312500,618.721024" />
<polygon id="a0es_0" class="Flat" points="634.562500,21.776930 658.968750,35.867885 658.968750,130.661583 634.562500,144.752538 610.156250,130.661583 610.156250,35.867885" />
<polygon id="a0es_1" class="Flat" points="634.562500,254.918186 658.968750,269.009141 658.968750,363.802838 634.562500,377.893793 610.156250,363.802838 610.156250,269.009141" />
<polygon id="a0es_2" class="Flat" points="634.562500,488.059442 658.968750,502.150397 658.968750,596.944094 634.562500,611.035049 610.156250,596.944094 610.156250,502.150397" />
<polygon id="g0isis_0" class="DoubleSharp" points="663.406250,138.347558 687.812500,152.438513 687.812500,247.232211 663.406250,261.323166 639.000000,247.232211 639.000000,152.438513" />
<polygon id="g0isis_1" class="DoubleSharp" points="663.406250,371.488814 687.812500,385.579769 687.812500,480.373466 663.406250,494.464421 639.000000,480.373466 639.000000,385.579769" />
<polygon id="g0isis_2" class="DoubleSharp" points="663.406250,604.630069 687.812500,618.721024 687.812500,713.514722 663.406250,727.605677 639.000000,713.514722 639.000000,618.721024" />
<polygon id="a0_0" class="Natural" points="692.250000,21.776930 716.656250,35.867885 716.656250,130.661583 692.250000,144.752538 667.843750,130.661583 667.843750,35.867885" />
<polygon id="a0_1" class="Natural" points="692.250000,254.918186 716.656250,269.009141 716.656250,363.802838 692.250000,377.893793 667.843750,363.802838 667.843750,269.009141" />
<polygon id="a0_2" class="Natural" points="692.250000,488.059442 716.656250,502.150397 716.656250,596.944094 692.250000,611.035049 667.843750,596.944094 667.843750,502.150397" />
<polygon id="b0eses_0" class="DoubleFlat" points="721.093750,138.347558 745.500000,152.438513 745.500000,247.232211 721.093750,261.323166 696.687500,247.232211 696.687500,152.438513" />
<polygon id="b0eses_1" class="DoubleFlat" points="721.093750,371.488814 745.500000,385.579769 745.500000,480.373466 721.093750,494.464421 696.687500,480.373466 696.687500,385.579769" />
<polygon id="b0eses_2" class="DoubleFlat" points="721.093750,604.630069 745.500000,618.721024 745.500000,713.514722 721.093750,727.605677 696.687500,713.514722 696.687500,618.721024" />
<polygon id="a0is_0" class="Sharp" points="749.937500,21.776930 774.343750,35.867885 774.343750,130.661583 749.937500,144.752538 725.531250,130.661583 725.531250,35.867885" />
<polygon id="a0is_1" class="Sharp" points="749.937500,254.918186 774.343750,269.009141 774.343750,363.802838 749.937500,377.893793 725.531250,363.802838 725.531250,269.009141" />
<polygon id="a0is_2" class="Sharp" points="749.937500,488.059442 774.343750,502.150397 774.343750,596.944094 749.937500,611.035049 725.531250,596.944094 725.531250,502.150397" />
<polygon id="b0es_0" class="Flat" points="778.781250,138.347558 803.187500,152.438513 803.187500,247.232211 778.781250,261.323166 754.375000,247.232211 754.375000,152.438513" />
<polygon id="b0es_1" class="Flat" points="778.781250,371.488814 803.187500,385.579769 803.187500,480.373466 778.781250,494.464421 754.375000,480.373466 754.375000,385.579769" />
<polygon id="b0es_2" class="Flat" points="778.781250,604.630069 803.187500,618.721024 803.187500,713.514722 778.781250,727.605677 754.375000,713.514722 754.375000,618.721024" />
<polygon id="a0isis_0" class="DoubleSharp" points="807.625000,21.776930 832.031250,35.867885 832.031250,130.661583 807.625000,144.752538 783.218750,130.661583 783.218750,35.867885" />
<polygon id="a0isis_1" class="DoubleSharp" points="807.625000,254.918186 832.031250,269.009141 832.031250,363.802838 807.625000,377.893793 783.218750,363.802838 783.218750,269.009141" />
<polygon id="a0isis_2" class="DoubleSharp" points="807.625000,488.059442 832.031250,502.150397 832.031250,596.944094 807.625000,611.035049 783.218750,596.944094 783.218750,502.150397" />
<polygon id="b0_0" class="Natural" points="836.468750,138.347558 860.875000,152.438513 860.875000,247.232211 836.468750,261.323166 812.062500,247.232211 812.062500,152.438513" />
<polygon id="b0_1" class="Natural" points="836.468750,371.488814 860.875000,385.579769 860.875000,480.373466 836.468750,494.464421 812.062500,480.373466 812.062500,385.579769" />
<polygon id="b0_2" class="Natural" points="836.468750,604.630069 860.875000,618.721024 860.875000,713.514722 836.468750,727.605677 812.062500,713.514722 812.062500,618.721024" />
<polygon id="c1es_0" class="Flat" points="865.312500,21.776930 889.718750,35.867885 889.718750,130.661583 865.312500,144.752538 840.906250,130.661583 840.906250,35.867885" />
<polygon id="c1es_1" class="Flat" points="865.312500,254.918186 889.718750,269.009141 889.718750,363.802838 865.312500,377.893793 840.906250,363.802838 840.906250,269.009141" />
<polygon id="c1es_2" class="Flat" points="865.312500,488.059442 889.718750,502.150397 889.718750,596.944094 865.312500,611.035049 840.906250,596.944094 840.906250,502.150397" />
<polygon id="b0is_0" class="Sharp" points="894.156250,138.347558 918.562500,152.438513 918.562500,247.232211 894.156250,261.323166 869.750000,247.232211 869.750000,152.438513" />
<polygon id="b0is_1" class="Sharp" points="894.156250,371.488814 918.562500,385.579769 918.562500,480.373466 894.156250,494.464421 869.750000,480.373466 869.750000,385.579769" />
<polygon id="b0is_2" class="Sharp" points="894.156250,604.630069 918.562500,618.721024 918.562500,713.514722 894.156250,727.605677 869.750000,713.514722 869.750000,618.721024" />
<polygon id="c1_0" class="Natural" points="951.843750,138.347558 976.250000,152.438513 976.250000,247.232211 951.843750,261.323166 927.437500,247.232211 927.437500,152.438513" />
<polygon id="c1_1" class="Natural" points="951.843750,371.488814 976.250000,385.579769 976.250000,480.373466 951.843750,494.464421 927.437500,480.373466 927.437500,385.579769" />
<polygon id="c1_2" class="Natural" points="951.843750,604.630069 976.250000,618.721024 976.250000,713.514722 951.843750,727.605677 927.437500,713.514722 927.437500,618.721024" />
<polygon id="d1eses_0" class="DoubleFlat" points="980.687500,21.776930 1005.093750,35.867885 1005.093750,130.661583 980.687500,144.752538 956.281250,130.661583 956.281250,35.867885" />
<polygon id="d1eses_1" class="DoubleFlat" points="980.687500,254.918186 1005.093750,269.009141 1005.093750,363.802838 980.687500,377.893793 956.281250,363.802838 956.281250,269.009141" />
<polygon id="d1eses_2" class="DoubleFlat" points="980.687500,488.059442 1005.093750,502.150397 1005.093750,596.944094 980.687500,611.035049 956.281250,596.944094 956.281250,502.150397" />
<polygon id="c1is_0" class="Sharp" points="1009.531250,138.347558 1033.937500,152.438513 1033.937500,247.232211 1009.531250,261.323166 985.125000,247.232211 985.125000,152.438513" />
<polygon id="c1is_1" class="Sharp" points="1009.531250,371.488814 1033.937500,385.579769 1033.937500,480.373466 1009.531250,494.464421 985.125000,480.373466 985.125000,385.579769" />
<polygon id="c1is_2" class="Sharp" points="1009.531250,604.630069 1033.937500,618.721024 1033.937500,713.514722 1009.531250,727.605677 985.125000,713.514722 985.125000,618.721024" />
<polygon id="d1es_0" class="Flat" points="1038.375000,21.776930 1062.781250,35.867885 1062.781250,130.661583 1038.375000,144.752538 1013.968750,130.661583 1013.968750,35.867885" />
<polygon id="d1es_1" class="Flat" points="1038.375000,254.918186 1062.781250,269.009141 1062.781250,363.802838 1038.375000,377.893793 1013.968750,363.802838 1013.968750,269.009141" />
<polygon id="d1es_2" class="Flat" points="1038.375000,488.059442 1062.781250,502.150397 1062.781250,596.944094 1038.375000,611.035049 1013.968750,596.944094 1013.968750,502.150397" />
<polygon id="c1isis_0" class="DoubleSharp" points="1067.218750,138.347558 1091.625000,152.438513 1091.625000,247.232211 1067.218750,261.323166 1042.812500,247.232211 1042.812500,152.438513" />
<polygon id="c1isis_1" class="DoubleSharp" points="1067.218750,371.488814 1091.625000,385.579769 1091.625000,480.373466 1067.218750,494.464421 1042.812500,480.373466 1042.812500,385.579769" />
<polygon id="c1isis_2" class="DoubleSharp" points="1067.218750,604.630069 1091.625000,618.721024 1091.625000,713.514722 1067.218750,727.605677 1042.812500,713.514722 1042.812500,618.721024" />
<polygon id="d1_0" class="Natural" points="1096.062500,21.776930 1120.468750,35.867885 1120.468750,130.661583 1096.062500,144.752538 1071.656250,130.661583 1071.656250,35.867885" />
<polygon id="d1_1" class="Natural" points="1096.062500,254.918186 1120.468750,269.009141 1120.468750,363.802838 1096.062500,377.893793 1071.656250,363.802838 1071.656250,269.009141" />
<polygon id="d1_2" class="Natural" points="1096.062500,488.059442 1120.468750,502.150397 1120.468750,596.944094 1096.062500,611.035049 1071.656250,596.944094 1071.656250,502.150397" />
<polygon id="e1eses_0" class="DoubleFlat" points="1124.906250,138.347558 1149.312500,152.438513 1149.312500,247.232211 1124.906250,261.323166 1100.500000,247.232211 1100.500000,152.438513" />
<polygon id="e1eses_1" class="DoubleFlat" points="1124.906250,371.488814 1149.312500,385.579769 1149.312500,480.373466 1124.906250,494.464421 1100.500000,480.373466 1100.500000,385.579769" />
<polygon id="e1eses_2" class="DoubleFlat" points="1124.906250,604.630069 1149.312500,618.721024 1149.312500,713.514722 1124.906250,727.605677 1100.500000,713.514722 1100.500000,618.721024" />
<polygon id="d1is_0" class="Sharp" points="1153.750000,21.776930 1178.156250,35.867885 1178.156250,130.661583 1153.750000,144.752538 1129.343750,130.661583 1129.343750,35.867885" />
<polygon id="d1is_1" class="Sharp" points="1153.750000,254.918186 1178.156250,269.009141 1178.156250,363.802838 1153.750000,377.893793 1129.343750,363.802838 1129.343750,269.009141" />
<polygon id="d1is_2" class="Sharp" points="1153.750000,488.059442 1178.156250,502.150397 1178.156250,596.944094 1153.750000,611.035049 1129.343750,596.944094 1129.343750,502.150397" />
<polygon id="e1es_0" class="Flat" points="1182.593750,138.347558 1207.000000,152.438513 1207.000000,247.232211 1182.593750,261.323166 1158.187500,247.232211 1158.187500,152.438513" />
<polygon id="e1es_1" class="Flat" points="1182.593750,371.488814 1207.000000,385.579769 1207.000000,480.373466 1182.593750,494.464421 1158.187500,480.373466 1158.187500,385.579769" />
<polygon id="e1es_2" class="Flat" points="1182.593750,604.630069 1207.000000,618.721024 1207.000000,713.514722 1182.593750,727.605677 1158.187500,713.514722 1158.187500,618.721024" />
<polygon id="d1isis_0" class="DoubleSharp" points="1211.437500,21.776930 1235.843750,35.867885 1235.843750,130.661583 1211.437500,144.752538 1187.031250,130.661583 1187.031250,35.867885" />
<polygon id="d1isis_1" class="DoubleSharp" points="1211.437500,254.918186 1235.843750,269.009141 1235.843750,363.802838 1211.437500,377.893793 1187.031250,363.802838 1187.031250,269.009141" />
<polygon id="d1isis_2" class="DoubleSharp" points="1211.437500,488.059442 1235.843750,502.150397 1235.843750,596.944094 1211.437500,611.035049 1187.031250,596.944094 1187.031250,502.150397" />
<polygon id="e1_0" class="Natural" points="1240.281250,138.347558 1264.687500,152.438513 1264.687500,247.232211 1240.281250,261.323166 1215.875000,247.232211 1215.875000,152.438513" />
<polygon id="e1_1" class="Natural" points="1240.281250,371.488814 1264.687500,385.579769 1264.687500,480.373466 1240.281250,494.464421 1215.875000,480.373466 1215.875000,385.579769" />
<polygon id="e1_2" class="Natural" points="1240.281250,604.630069 1264.687500,618.721024 1264.687500,713.514722 1240.281250,727.605677 1215.875000,713.514722 1215.875000,618.721024" />
<polygon id="f1es_0" class="Flat" points="1269.125000,21.776930 1293.531250,35.867885 1293.531250,130.661583 1269.125000,144.752538 1244.718750,130.661583 1244.718750,35.867885" />
<polygon id="f1es_1" class="Flat" points="1269.125000,254.918186 1293.531250,269.009141 1293.531250,363.802838 1269.125000,377.893793 1244.718750,363.802838 1244.718750,269.009141" />
<polygon id="f1es_2" class="Flat" points="1269.125000,488.059442 1293.531250,502.150397 1293.531250,596.944094 1269.125000,611.035049 1244.718750,596.944094 1244.718750,502.150397" />
<polygon id="e1is_0" class="Sharp" points="1297.968750,138.347558 1322.375000,152.438513 1322.375000,247.232211 1297.968750,261.323166 1273.562500,247.232211 1273.562500,152.438513" />
<polygon id="e1is_1" class="Sharp" points="1297.968750,371.488814 1322.375000,385.579769 1322.375000,480.373466 1297.968750,494.464421 1273.562500,480.373466 1273.562500,385.579769" />
<polygon id="e1is_2" class="Sharp" points="1297.968750,604.630069 1322.375000,618.721024 1322.375000,713.514722 1297.968750,727.605677 1273.562500,713.514722 1273.562500,618.721024" />
<polygon id="f1_0" class="Natural" points="1326.812500,21.776930 1351.218750,35.867885 1351.218750,130.661583 1326.812500,144.752538 1302.406250,130.661583 1302.406250,35.867885" />
<polygon id="f1_1" class="Natural" points="1326.812500,254.918186 1351.218750,269.009141 1351.218750,363.802838 1326.812500,377.893793 1302.406250,363.802838 1302.406250,269.009141" />
<polygon id="f1_2" class="Natural" points="1326.812500,488.059442 1351.218750,502.150397 1351.218750,596.944094 1326.812500,611.035049 1302.406250,596.944094 1302.406250,502.150397" />
<polygon id="g1eses_0" class="DoubleFlat" points="1355.656250,138.347558 1380.062500,152.438513 1380.062500,247.232211 1355.656250,261.323166 1331.250000,247.232211 1331.250000,152.438513" />
<polygon id="g1eses_1" class="DoubleFlat" points="1355.656250,371.488814 1380.062500,385.579769 1380.062500,480.373466 1355.656250,494.464421 1331.250000,480.373466 1331.250000,385.579769" />
<polygon id="g1eses_2" class="DoubleFlat" points="1355.656250,604.630069 1380.062500,618.721024 1380.062500,713.514722 1355.656250,727.605677 1331.250000,713.514722 1331.250000,618.721024" />
<polygon id="f1is_0" class="Sharp" points="1384.500000,21.776930 1408.906250,35.867885 1408.906250,130.661583 1384.500000,144.752538 1360.093750,130.661583 1360.093750,35.867885" />
<polygon id="f1is_1" class="Sharp" points="1384.500000,254.918186 1408.906250,269.009141 1408.906250,363.802838 1384.500000,377.893793 1360.093750,363.802838 1360.093750,269.009141" />
<polygon id="f1is_2" class="Sharp" points="1384.500000,488.059442 1408.906250,502.150397 1408.906250,596.944094 1384.500000,611.035049 1360.093750,596.944094 1360.093750,502.150397" />
<polygon id="g1es_0" class="Flat" points="1413.343750,138.347558 1437.750000,152.438513 1437.750000,247.232211 1413.343750,261.323166 1388.937500,247.232211 1388.937500,152.438513" />
<polygon id="g1es_1" class="Flat" points="1413.343750,371.488814 1437.750000,385.579769 1437.750000,480.373466 1413.343750,494.464421 1388.937500,480.373466 1388.937500,385.579769" />
<polygon id="g1es_2" class="Flat" points="1413.343750,604.630069 1437.750000,618.721024 1437.750000,713.514722 1413.343750,727.605677 1388.937500,713.514722 1388.937500,618.721024" />
<polygon id="f1isis_0" class="DoubleSharp" points="1442.187500,21.776930 1466.593750,35.867885 1466.593750,130.661583 1442.187500,144.752538 1417.781250,130.661583 1417.781250,35.867885" />
<polygon id="f1isis_1" class="DoubleSharp" points="1442.187500,254.918186 1466.593750,269.009141 1466.593750,363.802838 1442.187500,377.893793 1417.781250,363.802838 1417.781250,269.009141" />
<polygon id="f1isis_2" class="DoubleSharp" points="1442.187500,488.059442 1466.593750,502.150397 1466.593750,596.944094 1442.187500,611.035049 1417.781250,596.944094 1417.781250,502.150397" />
<polygon id="g1_0" class="Natural" points="1471.031250,138.347558 1495.437500,152.438513 1495.437500,247.232211 1471.031250,261.323166 1446.625000,247.232211 1446.625000,152.438513" />
<polygon id="g1_1" class="Natural" points="1471.031250,371.488814 1495.437500,385.579769 1495.437500,480.373466 1471.031250,494.464421 1446.625000,480.373466 1446.625000,385.579769" />
<polygon id="g1_2" class="Natural" points="1471.031250,604.630069 1495.437500,618.721024 1495.437500,713.514722 1471.031250,727.605677 1446.625000,713.514722 1446.625000,618.721024" />
<polygon id="a1eses_0" class="DoubleFlat" points="1499.875000,21.776930 1524.281250,35.867885 1524.281250,130.661583 1499.875000,144.752538 1475.468750,130.661583 1475.468750,35.867885" />
<polygon id="a1eses_1" class="DoubleFlat" points="1499.875000,254.918186 1524.281250,269.009141 1524.281250,363.802838 1499.875000,377.893793 1475.468750,363.802838 1475.468750,269.009141" />
<polygon id="a1eses_2" class="DoubleFlat" points="1499.875000,488.059442 1524.281250,502.150397 1524.281250,596.944094 1499.875000,611.035049 1475.468750,596.944094 1475.468750,502.150397" />
<polygon id="g1is_0" class="Sharp" points="1528.718750,138.347558 1553.125000,152.438513 1553.125000,247.232211 1528.718750,261.323166 1504.312500,247.232211 1504.312500,152.438513" />
<polygon id="g1is_1" class="Sharp" points="1528.718750,371.488814 1553.125000,385.579769 1553.125000,480.373466 1528.718750,494.464421 1504.312500,480.373466 1504.312500,385.579769" />
<polygon id="g1is_2" class="Sharp" points="1528.718750,604.630069 1553.125000,618.721024 1553.125000,713.514722 1528.718750,727.605677 1504.312500,713.514722 1504.312500,618.721024" />
<polygon id="a1es_0" class="Flat" points="1557.562500,21.776930 1581.968750,35.867885 1581.968750,130.661583 1557.562500,144.752538 1533.156250,130.661583 1533.156250,35.867885" />
<polygon id="a1es_1" class="Flat" points="1557.562500,254.918186 1581.968750,269.009141 1581.968750,363.802838 1557.562500,377.893793 1533.156250,363.802838 1533.156250,269.009141" />
<polygon id="a1es_2" class="Flat" points="1557.562500,488.059442 1581.968750,502.150397 1581.968750,596.944094 1557.562500,611.035049 1533.156250,596.944094 1533.156250,502.150397" />
<polygon id="g1isis_0" class="DoubleSharp" points="1586.406250,138.347558 1610.812500,152.438513 1610.812500,247.232211 1586.406250,261.323166 1562.000000,247.232211 1562.000000,152.438513" />
<polygon id="g1isis_1" class="DoubleSharp" points="1586.406250,371.488814 1610.812500,385.579769 1610.812500,480.373466 1586.406250,494.464421 1562.000000,480.373466 1562.000000,385.579769" />
<polygon id="g1isis_2" class="DoubleSharp" points="1586.406250,604.630069 1610.812500,618.721024 1610.812500,713.514722 1586.406250,727.605677 1562.000000,713.514722 1562.000000,618.721024" />
<polygon id="a1_0" class="Natural" points="1615.250000,21.776930 1639.656250,35.867885 1639.656250,130.661583 1615.250000,144.752538 1590.843750,130.661583 1590.843750,35.867885" />
<polygon id="a1_1" class="Natural" points="1615.250000,254.918186 1639.656250,269.009141 1639.656250,363.802838 1615.250000,377.893793 1590.843750,363.802838 1590.843750,269.009141" />
<polygon id="a1_2" class="Natural" points="1615.250000,488.059442 1639.656250,502.150397 1639.656250,596.944094 1615.250000,611.035049 1590.843750,596.944094 1590.843750,502.150397" />
<polygon id="b1eses_0" class="DoubleFlat" points="1644.093750,138.347558 1668.500000,152.438513 1668.500000,247.232211 1644.093750,261.323166 1619.687500,247.232211 1619.687500,152.438513" />
<polygon id="b1eses_1" class="DoubleFlat" points="1644.093750,371.488814 1668.500000,385.579769 1668.500000,480.373466 1644.093750,494.464421 1619.687500,480.373466 1619.687500,385.579769" />
<polygon id="b1eses_2" class="DoubleFlat" points="1644.093750,604.630069 1668.500000,618.721024 1668.500000,713.514722 1644.093750,727.605677 1619.687500,713.514722 1619.687500,618.721024" />
<polygon id="a1is_0" class="Sharp" points="1672.937500,21.776930 1697.343750,35.867885 1697.343750,130.661583 1672.937500,144.752538 1648.531250,130.661583 1648.531250,35.867885" />
<polygon id="a1is_1" class="Sharp" points="1672.937500,254.918186 1697.343750,269.009141 1697.343750,363.802838 1672.937500,377.893793 1648.531250,363.802838 1648.531250,269.009141" />
<polygon id="a1is_2" class="Sharp" points="1672.937500,488.059442 1697.343750,502.150397 1697.343750,596.944094 1672.937500,611.035049 1648.531250,596.944094 1648.531250,502.150397" />
<polygon id="b1es_0" class="Flat" points="1701.781250,138.347558 1726.187500,152.438513 1726.187500,247.232211 1701.781250,261.323166 1677.375000,247.232211 1677.375000,152.438513" />
<polygon id="b1es_1" class="Flat" points="1701.781250,371.488814 1726.187500,385.579769 1726.187500,480.373466 1701.781250,494.464421 1677.375000,480.373466 1677.375000,385.579769" />
<polygon id="b1es_2" class="Flat" points="1701.781250,604.630069 1726.187500,618.721024 1726.187500,713.514722 1701.781250,727.605677 1677.375000,713.514722 1677.375000,618.721024" />
<polygon id="a1isis_0" class="DoubleSharp" points="1730.625000,21.776930 1755.031250,35.867885 1755.031250,130.661583 1730.625000,144.752538 1706.218750,130.661583 1706.218750,35.867885" />
<polygon id="a1isis_1" class="DoubleSharp" points="1730.625000,254.918186 1755.031250,269.009141 1755.031250,363.802838 1730.625000,377.893793 1706.218750,363.802838 1706.218750,269.009141" />
<polygon id="a1isis_2" class="DoubleSharp" points="1730.625000,488.059442 1755.031250,502.150397 1755.031250,596.944094 1730.625000,611.035049 1706.218750,596.944094 1706.218750,502.150397" />
<polygon id="b1_0" class="Natural" points="1759.468750,138.347558 1783.875000,152.438513 1783.875000,247.232211 1759.468750,261.323166 1735.062500,247.232211 1735.062500,152.438513" />
<polygon id="b1_1" class="Natural" points="1759.468750,371.488814 1783.875000,385.579769 1783.875000,480.373466 1759.468750,494.464421 1735.062500,480.373466 1735.062500,385.579769" />
<polygon id="b1_2" class="Natural" points="1759.468750,604.630069 1783.875000,618.721024 1783.875000,713.514722 1759.468750,727.605677 1735.062500,713.514722 1735.062500,618.721024" />
<polygon id="c2es_0" class="Flat" points="1788.312500,21.776930 1812.718750,35.867885 1812.718750,130.661583 1788.312500,144.752538 1763.906250,130.661583 1763.906250,35.867885" />
<polygon id="c2es_1" class="Flat" points="1788.312500,254.918186 1812.718750,269.009141 1812.718750,363.802838 1788.312500,377.893793 1763.906250,363.802838 1763.906250,269.009141" />
<polygon id="c2es_2" class="Flat" points="1788.312500,488.059442 1812.718750,502.150397 1812.718750,596.944094 1788.312500,611.035049 1763.906250,596.944094 1763.906250,502.150397" />
<polygon id="b1is_0" class="Sharp" points="1817.156250,138.347558 1841.562500,152.438513 1841.562500,247.232211 1817.156250,261.323166 1792.750000,247.232211 1792.750000,152.438513" />
<polygon id="b1is_1" class="Sharp" points="1817.156250,371.488814 1841.562500,385.579769 1841.562500,480.373466 1817.156250,494.464421 1792.750000,480.373466 1792.750000,385.579769" />
<polygon id="b1is_2" class="Sharp" points="1817.156250,604.630069 1841.562500,618.721024 1841.562500,713.514722 1817.156250,727.605677 1792.750000,713.514722 1792.750000,618.721024" />
<polygon id="c2_0" class="Natural" points="1874.843750,138.347558 1899.250000,152.438513 1899.250000,247.232211 1874.843750,261.323166 1850.437500,247.232211 1850.437500,152.438513" />
<polygon id="c2_1" class="Natural" points="1874.843750,371.488814 1899.250000,385.579769 1899.250000,480.373466 1874.843750,494.464421 1850.437500,480.373466 1850.437500,385.579769" />
<polygon id="c2_2" class="Natural" points="1874.843750,604.630069 1899.250000,618.721024 1899.250000,713.514722 1874.843750,727.605677 1850.437500,713.514722 1850.437500,618.721024" />
</g>
</svg>
