<?xml version="1.0"?>
<svg width="1920.000000" height="1080.000000" xmlns="http://www.w3.org/2000/svg">
<style type="text/css">
  <![CDATA[
        polygon.Natural {
            stroke: #080808;
            stroke-width: 2;
            fill: #F7F5F0;
        }

        polygon.DoubleFlat {
            stroke: #080808;
            stroke-width: 2;
            fill: #848591;
        }

        polygon.Sharp {
            stroke: #080808;
            stroke-width: 2;
            fill: #43454D;
        }

        polygon.Flat {
            stroke: #080808;
            stroke-width: 2;
            fill: #43454D;
        }

        polygon.DoubleSharp {
            stroke: #080808;
            stroke-width: 2;
            fill: #848591;
        }

        line.Border {
            stroke: #383838;
            stroke-width: 4;
            stroke-linecap: round;
        }

      ]]>
 </style>
 <g>
   <title>31 Equal Temperament Interface</title>
<polygon id="c0_0" class="Natural" points="29.774194,191.653517 57.329637,207.562660 57.329637,359.711916 29.774194,375.621059 2.218750,359.711916 2.218750,207.562660" />
<polygon id="c0_1" class="Natural" points="29.774194,535.456290 57.329637,551.365433 57.329637,703.514689 29.774194,719.423832 2.218750,703.514689 2.218750,551.365433" />
<polygon id="c0_2" class="Natural" points="29.774194,879.259063 57.329637,895.168206 57.329637,1047.317462 29.774194,1063.226605 2.218750,1047.317462 2.218750,895.168206" />
<polygon id="d0eses_0" class="DoubleFlat" points="59.548387,19.752130 87.103831,35.661273 87.103831,187.810529 59.548387,203.719672 31.992944,187.810529 31.992944,35.661273" />
<polygon id="d0eses_1" class="DoubleFlat" points="59.548387,363.554904 87.103831,379.464046 87.103831,531.613303 59.548387,547.522445 31.992944,531.613303 31.992944,379.464046" />
<polygon id="d0eses_2" class="DoubleFlat" points="59.548387,707.357677 87.103831,723.266820 87.103831,875.416076 59.548387,891.325219 31.992944,875.416076 31.992944,723.266820" />
<polygon id="c0is_0" class="Sharp" points="89.322581,191.653517 116.878024,207.562660 116.878024,359.711916 89.322581,375.621059 61.767137,359.711916 61.767137,207.562660" />
<polygon id="c0is_1" class="Sharp" points="89.322581,535.456290 116.878024,551.365433 116.878024,703.514689 89.322581,719.423832 61.767137,703.514689 61.767137,551.365433" />
<polygon id="c0is_2" class="Sharp" points="89.322581,879.259063 116.878024,895.168206 116.878024,1047.317462 89.322581,1063.226605 61.767137,1047.317462 61.767137,895.168206" />
<polygon id="d0es_0" class="Flat" points="119.096774,19.752130 146.652218,35.661273 146.652218,187.810529 119.096774,203.719672 91.541331,187.810529 91.541331,35.661273" />
<polygon id="d0es_1" class="Flat" points="119.096774,363.554904 146.652218,379.464046 146.652218,531.613303 119.096774,547.522445 91.541331,531.613303 91.541331,379.464046" />
<polygon id="d0es_2" class="Flat" points="119.096774,707.357677 146.652218,723.266820 146.652218,875.416076 119.096774,891.325219 91.541331,875.416076 91.541331,723.266820" />
<polygon id="c0isis_0" class="DoubleSharp" points="148.870968,191.653517 176.426411,207.562660 176.426411,359.711916 148.870968,375.621059 121.315524,359.711916 121.315524,207.562660" />
<polygon id="c0isis_1" class="DoubleSharp" points="148.870968,535.456290 176.426411,551.365433 176.426411,703.514689 148.870968,719.423832 121.315524,703.514689 121.315524,551.365433" />
<polygon id="c0isis_2" class="DoubleSharp" points="148.870968,879.259063 176.426411,895.168206 176.426411,1047.317462 148.870968,1063.226605 121.315524,1047.317462 121.315524,895.168206" />
<polygon id="d0_0" class="Natural" points="178.645161,19.752130 206.200605,35.661273 206.200605,187.810529 178.645161,203.719672 151.089718,187.810529 151.089718,35.661273" />
<polygon id="d0_1" class="Natural" points="178.645161,363.554904 206.200605,379.464046 206.200605,531.613303 178.645161,547.522445 151.089718,531.613303 151.089718,379.464046" />
<polygon id="d0_2" class="Natural" points="178.645161,707.357677 206.200605,723.266820 206.200605,875.416076 178.645161,891.325219 151.089718,875.416076 151.089718,723.266820" />
<polygon id="e0eses_0" class="DoubleFlat" points="208.419355,191.653517 235.974798,207.562660 235.974798,359.711916 208.419355,375.621059 180.863911,359.711916 180.863911,207.562660" />
<polygon id="e0eses_1" class="DoubleFlat" points="208.419355,535.456290 235.974798,551.365433 235.974798,703.514689 208.419355,719.423832 180.863911,703.514689 180.863911,551.365433" />
<polygon id="e0eses_2" class="DoubleFlat" points="208.419355,879.259063 235.974798,895.168206 235.974798,1047.317462 208.419355,1063.226605 180.863911,1047.317462 180.863911,895.168206" />
<polygon id="d0is_0" class="Sharp" points="238.193548,19.752130 265.748992,35.661273 265.748992,187.810529 238.193548,203.719672 210.638105,187.810529 210.638105,35.661273" />
<polygon id="d0is_1" class="Sharp" points="238.193548,363.554904 265.748992,379.464046 265.748992,531.613303 238.193548,547.522445 210.638105,531.613303 210.638105,379.464046" />
<polygon id="d0is_2" class="Sharp" points="238.193548,707.357677 265.748992,723.266820 265.748992,875.416076 238.193548,891.325219 210.638105,875.416076 210.638105,723.266820" />
<polygon id="e0es_0" class="Flat" points="267.967742,191.653517 295.523185,207.562660 295.523185,359.711916 267.967742,375.621059 240.412298,359.711916 240.412298,207.562660" />
<polygon id="e0es_1" class="Flat" points="267.967742,535.456290 295.523185,551.365433 295.523185,703.514689 267.967742,719.423832 240.412298,703.514689 240.412298,551.365433" />
<polygon id="e0es_2" class="Flat" points="267.967742,879.259063 295.523185,895.168206 295.523185,1047.317462 267.967742,1063.226605 240.412298,1047.317462 240.412298,895.168206" />
<polygon id="d0isis_0" class="DoubleSharp" points="297.741935,19.752130 325.297379,35.661273 325.297379,187.810529 297.741935,203.719672 270.186492,187.810529 270.186492,35.661273" />
<polygon id="d0isis_1" class="DoubleSharp" points="297.741935,363.554904 325.297379,379.464046 325.297379,531.613303 297.741935,547.522445 270.186492,531.613303 270.186492,379.464046" />
<polygon id="d0isis_2" class="DoubleSharp" points="297.741935,707.357677 325.297379,723.266820 325.297379,875.416076 297.741935,891.325219 270.186492,875.416076 270.186492,723.266820" />
<polygon id="e0_0" class="Natural" points="327.516129,191.653517 355.071573,207.562660 355.071573,359.711916 327.516129,375.621059 299.960685,359.711916 299.960685,207.562660" />
<polygon id="e0_1" class="Natural" points="327.516129,535.456290 355.071573,551.365433 355.071573,703.514689 327.516129,719.423832 299.960685,703.514689 299.960685,551.365433" />
<polygon id="e0_2" class="Natural" points="327.516129,879.259063 355.071573,895.168206 355.071573,1047.317462 327.516129,1063.226605 299.960685,1047.317462 299.960685,895.168206" />
<polygon id="f0es_0" class="Flat" points="357.290323,19.752130 384.845766,35.661273 384.845766,187.810529 357.290323,203.719672 329.734879,187.810529 329.734879,35.661273" />
<polygon id="f0es_1" class="Flat" points="357.290323,363.554904 384.845766,379.464046 384.845766,531.613303 357.290323,547.522445 329.734879,531.613303 329.734879,379.464046" />
<polygon id="f0es_2" class="Flat" points="357.290323,707.357677 384.845766,723.266820 384.845766,875.416076 357.290323,891.325219 329.734879,875.416076 329.734879,723.266820" />
<polygon id="e0is_0" class="Sharp" points="387.064516,191.653517 414.619960,207.562660 414.619960,359.711916 387.064516,375.621059 359.509073,359.711916 359.509073,207.562660" />
<polygon id="e0is_1" class="Sharp" points="387.064516,535.456290 414.619960,551.365433 414.619960,703.514689 387.064516,719.423832 359.509073,703.514689 359.509073,551.365433" />
<polygon id="e0is_2" class="Sharp" points="387.064516,879.259063 414.619960,895.168206 414.619960,1047.317462 387.064516,1063.226605 359.509073,1047.317462 359.509073,895.168206" />
<polygon id="f0_0" class="Natural" points="416.838710,19.752130 444.394153,35.661273 444.394153,187.810529 416.838710,203.719672 389.283266,187.810529 389.283266,35.661273" />
<polygon id="f0_1" class="Natural" points="416.838710,363.554904 444.394153,379.464046 444.394153,531.613303 416.838710,547.522445 389.283266,531.613303 389.283266,379.464046" />
<polygon id="f0_2" class="Natural" points="416.838710,707.357677 444.394153,723.266820 444.394153,875.416076 416.838710,891.325219 389.283266,875.416076 389.283266,723.266820" />
<polygon id="g0eses_0" class="DoubleFlat" points="446.612903,191.653517 474.168347,207.562660 474.168347,359.711916 446.612903,375.621059 419.057460,359.711916 419.057460,207.562660" />
<polygon id="g0eses_1" class="DoubleFlat" points="446.612903,535.456290 474.168347,551.365433 474.168347,703.514689 446.612903,719.423832 419.057460,703.514689 419.057460,551.365433" />
<polygon id="g0eses_2" class="DoubleFlat" points="446.612903,879.259063 474.168347,895.168206 474.168347,1047.317462 446.612903,1063.226605 419.057460,1047.317462 419.057460,895.168206" />
<polygon id="f0is_0" class="Sharp" points="476.387097,19.752130 503.942540,35.661273 503.942540,187.810529 476.387097,203.719672 448.831653,187.810529 448.831653,35.661273" />
<polygon id="f0is_1" class="Sharp" points="476.387097,363.554904 503.942540,379.464046 503.942540,531.613303 476.387097,547.522445 448.831653,531.613303 448.831653,379.464046" />
<polygon id="f0is_2" class="Sharp" points="476.387097,707.357677 503.942540,723.266820 503.942540,875.416076 476.387097,891.325219 448.831653,875.416076 448.831653,723.266820" />
<polygon id="g0es_0" class="Flat" points="506.161290,191.653517 533.716734,207.562660 533.716734,359.711916 506.161290,375.621059 478.605847,359.711916 478.605847,207.562660" />
<polygon id="g0es_1" class="Flat" points="506.161290,535.456290 533.716734,551.365433 533.716734,703.514689 506.161290,719.423832 478.605847,703.514689 478.605847,551.365433" />
<polygon id="g0es_2" class="Flat" points="506.161290,879.259063 533.716734,895.168206 533.716734,1047.317462 506.161290,1063.226605 478.605847,1047.317462 478.605847,895.168206" />
<polygon id="f0isis_0" class="DoubleSharp" points="535.935484,19.752130 563.490927,35.661273 563.490927,187.810529 535.935484,203.719672 508.380040,187.810529 508.380040,35.661273" />
<polygon id="f0isis_1" class="DoubleSharp" points="535.935484,363.554904 563.490927,379.464046 563.490927,531.613303 535.935484,547.522445 508.380040,531.613303 508.380040,379.464046" />
<polygon id="f0isis_2" class="DoubleSharp" points="535.935484,707.357677 563.490927,723.266820 563.490927,875.416076 535.935484,891.325219 508.380040,875.416076 508.380040,723.266820" />
<polygon id="g0_0" class="Natural" points="565.709677,191.653517 593.265121,207.562660 593.265121,359.711916 565.709677,375.621059 538.154234,359.711916 538.154234,207.562660" />
<polygon id="g0_1" class="Natural" points="565.709677,535.456290 593.265121,551.365433 593.265121,703.514689 565.709677,719.423832 538.154234,703.514689 538.154234,551.365433" />
<polygon id="g0_2" class="Natural" points="565.709677,879.259063 593.265121,895.168206 593.265121,1047.317462 565.709677,1063.226605 538.154234,1047.317462 538.154234,895.168206" />
<polygon id="a0eses_0" class="DoubleFlat" points="595.483871,19.752130 623.039315,35.661273 623.039315,187.810529 595.483871,203.719672 567.928427,187.810529 567.928427,35.661273" />
<polygon id="a0eses_1" class="DoubleFlat" points="595.483871,363.554904 623.039315,379.464046 623.039315,531.613303 595.483871,547.522445 567.928427,531.613303 567.928427,379.464046" />
<polygon id="a0eses_2" class="DoubleFlat" points="595.483871,707.357677 623.039315,723.266820 623.039315,875.416076 595.483871,891.325219 567.928427,875.416076 567.928427,723.266820" />
<polygon id="g0is_0" class="Sharp" points="625.258065,191.653517 652.813508,207.562660 652.813508,359.711916 625.258065,375.621059 597.702621,359.711916 597.702621,207.562660" />
<polygon id="g0is_1" class="Sharp" points="625.258065,535.456290 652.813508,551.365433 652.813508,703.514689 625.258065,719.423832 597.702621,703.514689 597.702621,551.365433" />
<polygon id="g0is_2" class="Sharp" points="625.258065,879.259063 652.813508,895.168206 652.813508,1047.317462 625.258065,1063.226605 597.702621,1047.317462 597.702621,895.168206" />
<polygon id="a0es_0" class="Flat" points="655.032258,19.752130 682.587702,35.661273 682.587702,187.810529 655.032258,203.719672 627.476815,187.810529 627.476815,35.661273" />
<polygon id="a0es_1" class="Flat" points="655.032258,363.554904 682.587702,379.464046 682.587702,531.613303 655.032258,547.522445 627.476815,531.613303 627.476815,379.464046" />
<polygon id="a0es_2" class="Flat" points="655.032258,707.357677 682.587702,723.266820 682.587702,875.416076 655.032258,891.325219 627.476815,875.416076 627.476815,723.266820" />
<polygon id="g0isis_0" class="DoubleSharp" points="684.806452,191.653517 712.361895,207.562660 712.361895,359.711916 684.806452,375.621059 657.251008,359.711916 657.251008,207.562660" />
<polygon id="g0isis_1" class="DoubleSharp" points="684.806452,535.456290 712.361895,551.365433 712.361895,703.514689 684.806452,719.423832 657.251008,703.514689 657.251008,551.365433" />
<polygon id="g0isis_2" class="DoubleSharp" points="684.806452,879.259063 712.361895,895.168206 712.361895,1047.317462 684.806452,1063.226605 657.251008,1047.317462 657.251008,895.168206" />
<polygon id="a0_0" class="Natural" points="714.580645,19.752130 742.136089,35.661273 742.136089,187.810529 714.580645,203.719672 687.025202,187.810529 687.025202,35.661273" />
<polygon id="a0_1" class="Natural" points="714.580645,363.554904 742.136089,379.464046 742.136089,531.613303 714.580645,547.522445 687.025202,531.613303 687.025202,379.464046" />
<polygon id="a0_2" class="Natural" points="714.580645,707.357677 742.136089,723.266820 742.136089,875.416076 714.580645,891.325219 687.025202,875.416076 687.025202,723.266820" />
<polygon id="b0eses_0" class="DoubleFlat" points="744.354839,191.653517 771.910282,207.562660 771.910282,359.711916 744.354839,375.621059 716.799395,359.711916 716.799395,207.562660" />
<polygon id="b0eses_1" class="DoubleFlat" points="744.354839,535.456290 771.910282,551.365433 771.910282,703.514689 744.354839,719.423832 716.799395,703.514689 716.799395,551.365433" />
<polygon id="b0eses_2" class="DoubleFlat" points="744.354839,879.259063 771.910282,895.168206 771.910282,1047.317462 744.354839,1063.226605 716.799395,1047.317462 716.799395,895.168206" />
<polygon id="a0is_0" class="Sharp" points="774.129032,19.752130 801.684476,35.661273 801.684476,187.810529 774.129032,203.719672 746.573589,187.810529 746.573589,35.661273" />
<polygon id="a0is_1" class="Sharp" points="774.129032,363.554904 801.684476,379.464046 801.684476,531.613303 774.129032,547.522445 746.573589,531.613303 746.573589,379.464046" />
<polygon id="a0is_2" class="Sharp" points="774.129032,707.357677 801.684476,723.266820 801.684476,875.416076 774.129032,891.325219 746.573589,875.416076 746.573589,723.266820" />
<polygon id="b0es_0" class="Flat" points="803.903226,191.653517 831.458669,207.562660 831.458669,359.711916 803.903226,375.621059 776.347782,359.711916 776.347782,207.562660" />
<polygon id="b0es_1" class="Flat" points="803.903226,535.456290 831.458669,551.365433 831.458669,703.514689 803.903226,719.423832 776.347782,703.514689 776.347782,551.365433" />
<polygon id="b0es_2" class="Flat" points="803.903226,879.259063 831.458669,895.168206 831.458669,1047.317462 803.903226,1063.226605 776.347782,1047.317462 776.347782,895.168206" />
<polygon id="a0isis_0" class="DoubleSharp" points="833.677419,19.752130 861.232863,35.661273 861.232863,187.810529 833.677419,203.719672 806.121976,187.810529 806.121976,35.661273" />
<polygon id="a0isis_1" class="DoubleSharp" points="833.677419,363.554904 861.232863,379.464046 861.232863,531.613303 833.677419,547.522445 806.121976,531.613303 806.121976,379.464046" />
<polygon id="a0isis_2" class="DoubleSharp" points="833.677419,707.357677 861.232863,723.266820 861.232863,875.416076 833.677419,891.325219 806.121976,875.416076 806.121976,723.266820" />
<polygon id="b0_0" class="Natural" points="863.451613,191.653517 891.007056,207.562660 891.007056,359.711916 863.451613,375.621059 835.896169,359.711916 835.896169,207.562660" />
<polygon id="b0_1" class="Natural" points="863.451613,535.456290 891.007056,551.365433 891.007056,703.514689 863.451613,719.423832 835.896169,703.514689 835.896169,551.365433" />
<polygon id="b0_2" class="Natural" points="863.451613,879.259063 891.007056,895.168206 891.007056,1047.317462 863.451613,1063.226605 835.896169,1047.317462 835.896169,895.168206" />
<polygon id="c1es_0" class="Flat" points="893.225806,19.752130 920.781250,35.661273 920.781250,187.810529 893.225806,203.719672 865.670363,187.810529 865.670363,35.661273" />
<polygon id="c1es_1" class="Flat" points="893.225806,363.554904 920.781250,379.464046 920.781250,531.613303 893.225806,547.522445 865.670363,531.613303 865.670363,379.464046" />
<polygon id="c1es_2" class="Flat" points="893.225806,707.357677 920.781250,723.266820 920.781250,875.416076 893.225806,891.325219 865.670363,875.416076 865.670363,723.266820" />
<polygon id="b0is_0" class="Sharp" points="923.000000,191.653517 950.555444,207.562660 950.555444,359.711916 923.000000,375.621059 895.444556,359.711916 895.444556,207.562660" />
<polygon id="b0is_1" class="Sharp" points="923.000000,535.456290 950.555444,551.365433 950.555444,703.514689 923.000000,719.423832 895.444556,703.514689 895.444556,551.365433" />
<polygon id="b0is_2" class="Sharp" points="923.000000,879.259063 950.555444,895.168206 950.555444,1047.317462 923.000000,1063.226605 895.444556,1047.317462 895.444556,895.168206" />
<polygon id="c1_0" class="Natural" points="952.774194,19.752130 980.329637,35.661273 980.329637,187.810529 952.774194,203.719672 925.218750,187.810529 925.218750,35.661273" />
<polygon id="c1_1" class="Natural" points="952.774194,363.554904 980.329637,379.464046 980.329637,531.613303 952.774194,547.522445 925.218750,531.613303 925.218750,379.464046" />
<polygon id="c1_2" class="Natural" points="952.774194,707.357677 980.329637,723.266820 980.329637,875.416076 952.774194,891.325219 925.218750,875.416076 925.218750,723.266820" />
<polygon id="d1eses_0" class="DoubleFlat" points="982.548387,191.653517 1010.103831,207.562660 1010.103831,359.711916 982.548387,375.621059 954.992944,359.711916 954.992944,207.562660" />
<polygon id="d1eses_1" class="DoubleFlat" points="982.548387,535.456290 1010.103831,551.365433 1010.103831,703.514689 982.548387,719.423832 954.992944,703.514689 954.992944,551.365433" />
<polygon id="d1eses_2" class="DoubleFlat" points="982.548387,879.259063 1010.103831,895.168206 1010.103831,1047.317462 982.548387,1063.226605 954.992944,1047.317462 954.992944,895.168206" />
<polygon id="c1is_0" class="Sharp" points="1012.322581,19.752130 1039.878024,35.661273 1039.878024,187.810529 1012.322581,203.719672 984.767137,187.810529 984.767137,35.661273" />
<polygon id="c1is_1" class="Sharp" points="1012.322581,363.554904 1039.878024,379.464046 1039.878024,531.613303 1012.322581,547.522445 984.767137,531.613303 984.767137,379.464046" />
<polygon id="c1is_2" class="Sharp" points="1012.322581,707.357677 1039.878024,723.266820 1039.878024,875.416076 1012.322581,891.325219 984.767137,875.416076 984.767137,723.266820" />
<polygon id="d1es_0" class="Flat" points="1042.096774,191.653517 1069.652218,207.562660 1069.652218,359.711916 1042.096774,375.621059 1014.541331,359.711916 1014.541331,207.562660" />
<polygon id="d1es_1" class="Flat" points="1042.096774,535.456290 1069.652218,551.365433 1069.652218,703.514689 1042.096774,719.423832 1014.541331,703.514689 1014.541331,551.365433" />
<polygon id="d1es_2" class="Flat" points="1042.096774,879.259063 1069.652218,895.168206 1069.652218,1047.317462 1042.096774,1063.226605 1014.541331,1047.317462 1014.541331,895.168206" />
<polygon id="c1isis_0" class="DoubleSharp" points="1071.870968,19.752130 1099.426411,35.661273 1099.426411,187.810529 1071.870968,203.719672 1044.315524,187.810529 1044.315524,35.661273" />
<polygon id="c1isis_1" class="DoubleSharp" points="1071.870968,363.554904 1099.426411,379.464046 1099.426411,531.613303 1071.870968,547.522445 1044.315524,531.613303 1044.315524,379.464046" />
<polygon id="c1isis_2" class="DoubleSharp" points="1071.870968,707.357677 1099.426411,723.266820 1099.426411,875.416076 1071.870968,891.325219 1044.315524,875.416076 1044.315524,723.266820" />
<polygon id="d1_0" class="Natural" points="1101.645161,191.653517 1129.200605,207.562660 1129.200605,359.711916 1101.645161,375.621059 1074.089718,359.711916 1074.089718,207.562660" />
<polygon id="d1_1" class="Natural" points="1101.645161,535.456290 1129.200605,551.365433 1129.200605,703.514689 1101.645161,719.423832 1074.089718,703.514689 1074.089718,551.365433" />
<polygon id="d1_2" class="Natural" points="1101.645161,879.259063 1129.200605,895.168206 1129.200605,1047.317462 1101.645161,1063.226605 1074.089718,1047.317462 1074.089718,895.168206" />
<polygon id="e1eses_0" class="DoubleFlat" points="1131.419355,19.752130 1158.974798,35.661273 1158.974798,187.810529 1131.419355,203.719672 1103.863911,187.810529 1103.863911,35.661273" />
<polygon id="e1eses_1" class="DoubleFlat" points="1131.419355,363.554904 1158.974798,379.464046 1158.974798,531.613303 1131.419355,547.522445 1103.863911,531.613303 1103.863911,379.464046" />
<polygon id="e1eses_2" class="DoubleFlat" points="1131.419355,707.357677 1158.974798,723.266820 1158.974798,875.416076 1131.419355,891.325219 1103.863911,875.416076 1103.863911,723.266820" />
<polygon id="d1is_0" class="Sharp" points="1161.193548,191.653517 1188.748992,207.562660 1188.748992,359.711916 1161.193548,375.621059 1133.638105,359.711916 1133.638105,207.562660" />
<polygon id="d1is_1" class="Sharp" points="1161.193548,535.456290 1188.748992,551.365433 1188.748992,703.514689 1161.193548,719.423832 1133.638105,703.514689 1133.638105,551.365433" />
<polygon id="d1is_2" class="Sharp" points="1161.193548,879.259063 1188.748992,895.168206 1188.748992,1047.317462 1161.193548,1063.226605 1133.638105,1047.317462 1133.638105,895.168206" />
<polygon id="e1es_0" class="Flat" points="1190.967742,19.752130 1218.523185,35.661273 1218.523185,187.810529 1190.967742,203.719672 1163.412298,187.810529 1163.412298,35.661273" />
<polygon id="e1es_1" class="Flat" points="1190.967742,363.554904 1218.523185,379.464046 1218.523185,531.613303 1190.967742,547.522445 1163.412298,531.613303 1163.412298,379.464046" />
<polygon id="e1es_2" class="Flat" points="1190.967742,707.357677 1218.523185,723.266820 1218.523185,875.416076 1190.967742,891.325219 1163.412298,875.416076 1163.412298,723.266820" />
<polygon id="d1isis_0" class="DoubleSharp" points="1220.741935,191.653517 1248.297379,207.562660 1248.297379,359.711916 1220.741935,375.621059 1193.186492,359.711916 1193.186492,207.562660" />
<polygon id="d1isis_1" class="DoubleSharp" points="1220.741935,535.456290 1248.297379,551.365433 1248.297379,703.514689 1220.741935,719.423832 1193.186492,703.514689 1193.186492,551.365433" />
<polygon id="d1isis_2" class="DoubleSharp" points="1220.741935,879.259063 1248.297379,895.168206 1248.297379,1047.317462 1220.741935,1063.226605 1193.186492,1047.317462 1193.186492,895.168206" />
<polygon id="e1_0" class="Natural" points="1250.516129,19.752130 1278.071573,35.661273 1278.071573,187.810529 1250.516129,203.719672 1222.960685,187.810529 1222.960685,35.661273" />
<polygon id="e1_1" class="Natural" points="1250.516129,363.554904 1278.071573,379.464046 1278.071573,531.613303 1250.516129,547.522445 1222.960685,531.613303 1222.960685,379.464046" />
<polygon id="e1_2" class="Natural" points="1250.516129,707.357677 1278.071573,723.266820 1278.071573,875.416076 1250.516129,891.325219 1222.960685,875.416076 1222.960685,723.266820" />
<polygon id="f1es_0" class="Flat" points="1280.290323,191.653517 1307.845766,207.562660 1307.845766,359.711916 1280.290323,375.621059 1252.734879,359.711916 1252.734879,207.562660" />
<polygon id="f1es_1" class="Flat" points="1280.290323,535.456290 1307.845766,551.365433 1307.845766,703.514689 1280.290323,719.423832 1252.734879,703.514689 1252.734879,551.365433" />
<polygon id="f1es_2" class="Flat" points="1280.290323,879.259063 1307.845766,895.168206 1307.845766,1047.317462 1280.290323,1063.226605 1252.734879,1047.317462 1252.734879,895.168206" />
<polygon id="e1is_0" class="Sharp" points="1310.064516,19.752130 1337.619960,35.661273 1337.619960,187.810529 1310.064516,203.719672 1282.509073,187.810529 1282.509073,35.661273" />
<polygon id="e1is_1" class="Sharp" points="1310.064516,363.554904 1337.619960,379.464046 1337.619960,531.613303 1310.064516,547.522445 1282.509073,531.613303 1282.509073,379.464046" />
<polygon id="e1is_2" class="Sharp" points="1310.064516,707.357677 1337.619960,723.266820 1337.619960,875.416076 1310.064516,891.325219 1282.509073,875.416076 1282.509073,723.266820" />
<polygon id="f1_0" class="Natural" points="1339.838710,191.653517 1367.394153,207.562660 1367.394153,359.711916 1339.838710,375.621059 1312.283266,359.711916 1312.283266,207.562660" />
<polygon id="f1_1" class="Natural" points="1339.838710,535.456290 1367.394153,551.365433 1367.394153,703.514689 1339.838710,719.423832 1312.283266,703.514689 1312.283266,551.365433" />
<polygon id="f1_2" class="Natural" points="1339.838710,879.259063 1367.394153,895.168206 1367.394153,1047.317462 1339.838710,1063.226605 1312.283266,1047.317462 1312.283266,895.168206" />
<polygon id="g1eses_0" class="DoubleFlat" points="1369.612903,19.752130 1397.168347,35.661273 1397.168347,187.810529 1369.612903,203.719672 1342.057460,187.810529 1342.057460,35.661273" />
<polygon id="g1eses_1" class="DoubleFlat" points="1369.612903,363.554904 1397.168347,379.464046 1397.168347,531.613303 1369.612903,547.522445 1342.057460,531.613303 1342.057460,379.464046" />
<polygon id="g1eses_2" class="DoubleFlat" points="1369.612903,707.357677 1397.168347,723.266820 1397.168347,875.416076 1369.612903,891.325219 1342.057460,875.416076 1342.057460,723.266820" />
<polygon id="f1is_0" class="Sharp" points="1399.387097,191.653517 1426.942540,207.562660 1426.942540,359.711916 1399.387097,375.621059 1371.831653,359.711916 1371.831653,207.562660" />
<polygon id="f1is_1" class="Sharp" points="1399.387097,535.456290 1426.942540,551.365433 1426.942540,703.514689 1399.387097,719.423832 1371.831653,703.514689 1371.831653,551.365433" />
<polygon id="f1is_2" class="Sharp" points="1399.387097,879.259063 1426.942540,895.168206 1426.942540,1047.317462 1399.387097,1063.226605 1371.831653,1047.317462 1371.831653,895.168206" />
<polygon id="g1es_0" class="Flat" points="1429.161290,19.752130 1456.716734,35.661273 1456.716734,187.810529 1429.161290,203.719672 1401.605847,187.810529 1401.605847,35.661273" />
<polygon id="g1es_1" class="Flat" points="1429.161290,363.554904 1456.716734,379.464046 1456.716734,531.613303 1429.161290,547.522445 1401.605847,531.613303 1401.605847,379.464046" />
<polygon id="g1es_2" class="Flat" points="1429.161290,707.357677 1456.716734,723.266820 1456.716734,875.416076 1429.161290,891.325219 1401.605847,875.416076 1401.605847,723.266820" />
<polygon id="f1isis_0" class="DoubleSharp" points="1458.935484,191.653517 1486.490927,207.562660 1486.490927,359.711916 1458.935484,375.621059 1431.380040,359.711916 1431.380040,207.562660" />
<polygon id="f1isis_1" class="DoubleSharp" points="1458.935484,535.456290 1486.490927,551.365433 1486.490927,703.514689 1458.935484,719.423832 1431.380040,703.514689 1431.380040,551.365433" />
<polygon id="f1isis_2" class="DoubleSharp" points="1458.935484,879.259063 1486.490927,895.168206 1486.490927,1047.317462 1458.935484,1063.226605 1431.380040,1047.317462 1431.380040,895.168206" />
<polygon id="g1_0" class="Natural" points="1488.709677,19.752130 1516.265121,35.661273 1516.265121,187.810529 1488.709677,203.719672 1461.154234,187.810529 1461.154234,35.661273" />
<polygon id="g1_1" class="Natural" points="1488.709677,363.554904 1516.265121,379.464046 1516.265121,531.613303 1488.709677,547.522445 1461.154234,531.613303 1461.154234,379.464046" />
<polygon id="g1_2" class="Natural" points="1488.709677,707.357677 1516.265121,723.266820 1516.265121,875.416076 1488.709677,891.325219 1461.154234,875.416076 1461.154234,723.266820" />
<polygon id="a1eses_0" class="DoubleFlat" points="1518.483871,191.653517 1546.039315,207.562660 1546.039315,359.711916 1518.483871,375.621059 1490.928427,359.711916 1490.928427,207.562660" />
<polygon id="a1eses_1" class="DoubleFlat" points="1518.483871,535.456290 1546.039315,551.365433 1546.039315,703.514689 1518.483871,719.423832 1490.928427,703.514689 1490.928427,551.365433" />
<polygon id="a1eses_2" class="DoubleFlat" points="1518.483871,879.259063 1546.039315,895.168206 1546.039315,1047.317462 1518.483871,1063.226605 1490.928427,1047.317462 1490.928427,895.168206" />
<polygon id="g1is_0" class="Sharp" points="1548.258065,19.752130 1575.813508,35.661273 1575.813508,187.810529 1548.258065,203.719672 1520.702621,187.810529 1520.702621,35.661273" />
<polygon id="g1is_1" class="Sharp" points="1548.258065,363.554904 1575.813508,379.464046 1575.813508,531.613303 1548.258065,547.522445 1520.702621,531.613303 1520.702621,379.464046" />
<polygon id="g1is_2" class="Sharp" points="1548.258065,707.357677 1575.813508,723.266820 1575.813508,875.416076 1548.258065,891.325219 1520.702621,875.416076 1520.702621,723.266820" />
<polygon id="a1es_0" class="Flat" points="1578.032258,191.653517 1605.587702,207.562660 1605.587702,359.711916 1578.032258,375.621059 1550.476815,359.711916 1550.476815,207.562660" />
<polygon id="a1es_1" class="Flat" points="1578.032258,535.456290 1605.587702,551.365433 1605.587702,703.514689 1578.032258,719.423832 1550.476815,703.514689 1550.476815,551.365433" />
<polygon id="a1es_2" class="Flat" points="1578.032258,879.259063 1605.587702,895.168206 1605.587702,1047.317462 1578.032258,1063.226605 1550.476815,1047.317462 1550.476815,895.168206" />
<polygon id="g1isis_0" class="DoubleSharp" points="1607.806452,19.752130 1635.361895,35.661273 1635.361895,187.810529 1607.806452,203.719672 1580.251008,187.810529 1580.251008,35.661273" />
<polygon id="g1isis_1" class="DoubleSharp" points="1607.806452,363.554904 1635.361895,379.464046 1635.361895,531.613303 1607.806452,547.522445 1580.251008,531.613303 1580.251008,379.464046" />
<polygon id="g1isis_2" class="DoubleSharp" points="1607.806452,707.357677 1635.361895,723.266820 1635.361895,875.416076 1607.806452,891.325219 1580.251008,875.416076 1580.251008,723.266820" />
<polygon id="a1_0" class="Natural" points="1637.580645,191.653517 1665.136089,207.562660 1665.136089,359.711916 1637.580645,375.621059 1610.025202,359.711916 1610.025202,207.562660" />
<polygon id="a1_1" class="Natural" points="1637.580645,535.456290 1665.136089,551.365433 1665.136089,703.514689 1637.580645,719.423832 1610.025202,703.514689 1610.025202,551.365433" />
<polygon id="a1_2" class="Natural" points="1637.580645,879.259063 1665.136089,895.168206 1665.136089,1047.317462 1637.580645,1063.226605 1610.025202,1047.317462 1610.025202,895.168206" />
<polygon id="b1eses_0" class="DoubleFlat" points="1667.354839,19.752130 1694.910282,35.661273 1694.910282,187.810529 1667.354839,203.719672 1639.799395,187.810529 1639.799395,35.661273" />
<polygon id="b1eses_1" class="DoubleFlat" points="1667.354839,363.554904 1694.910282,379.464046 1694.910282,531.613303 1667.354839,547.522445 1639.799395,531.613303 1639.799395,379.464046" />
<polygon id="b1eses_2" class="DoubleFlat" points="1667.354839,707.357677 1694.910282,723.266820 1694.910282,875.416076 1667.354839,891.325219 1639.799395,875.416076 1639.799395,723.266820" />
<polygon id="a1is_0" class="Sharp" points="1697.129032,191.653517 1724.684476,207.562660 1724.684476,359.711916 1697.129032,375.621059 1669.573589,359.711916 1669.573589,207.562660" />
<polygon id="a1is_1" class="Sharp" points="1697.129032,535.456290 1724.684476,551.365433 1724.684476,703.514689 1697.129032,719.423832 1669.573589,703.514689 1669.573589,551.365433" />
<polygon id="a1is_2" class="Sharp" points="1697.129032,879.259063 1724.684476,895.168206 1724.684476,1047.317462 1697.129032,1063.226605 1669.573589,1047.317462 1669.573589,895.168206" />
<polygon id="b1es_0" class="Flat" points="1726.903226,19.752130 1754.458669,35.661273 1754.458669,187.810529 1726.903226,203.719672 1699.347782,187.810529 1699.347782,35.661273" />
<polygon id="b1es_1" class="Flat" points="1726.903226,363.554904 1754.458669,379.464046 1754.458669,531.613303 1726.903226,547.522445 1699.347782,531.613303 1699.347782,379.464046" />
<polygon id="b1es_2" class="Flat" points="1726.903226,707.357677 1754.458669,723.266820 1754.458669,875.416076 1726.903226,891.325219 1699.347782,875.416076 1699.347782,723.266820" />
<polygon id="a1isis_0" class="DoubleSharp" points="1756.677419,191.653517 1784.232863,207.562660 1784.232863,359.711916 1756.677419,375.621059 1729.121976,359.711916 1729.121976,207.562660" />
<polygon id="a1isis_1" class="DoubleSharp" points="1756.677419,535.456290 1784.232863,551.365433 1784.232863,703.514689 1756.677419,719.423832 1729.121976,703.514689 1729.121976,551.365433" />
<polygon id="a1isis_2" class="DoubleSharp" points="1756.677419,879.259063 1784.232863,895.168206 1784.232863,1047.317462 1756.677419,1063.226605 1729.121976,1047.317462 1729.121976,895.168206" />
<polygon id="b1_0" class="Natural" points="1786.451613,19.752130 1814.007056,35.661273 1814.007056,187.810529 1786.451613,203.719672 1758.896169,187.810529 1758.896169,35.661273" />
<polygon id="b1_1" class="Natural" points="1786.451613,363.554904 1814.007056,379.464046 1814.007056,531.613303 1786.451613,547.522445 1758.896169,531.613303 1758.896169,379.464046" />
<polygon id="b1_2" class="Natural" points="1786.451613,707.357677 1814.007056,723.266820 1814.007056,875.416076 1786.451613,891.325219 1758.896169,875.416076 1758.896169,723.266820" />
<polygon id="c2es_0" class="Flat" points="1816.225806,191.653517 1843.781250,207.562660 1843.781250,359.711916 1816.225806,375.621059 1788.670363,359.711916 1788.670363,207.562660" />
<polygon id="c2es_1" class="Flat" points="1816.225806,535.456290 1843.781250,551.365433 1843.781250,703.514689 1816.225806,719.423832 1788.670363,703.514689 1788.670363,551.365433" />
<polygon id="c2es_2" class="Flat" points="1816.225806,879.259063 1843.781250,895.168206 1843.781250,1047.317462 1816.225806,1063.226605 1788.670363,1047.317462 1788.670363,895.168206" />
<polygon id="b1is_0" class="Sharp" points="1846.000000,19.752130 1873.555444,35.661273 1873.555444,187.810529 1846.000000,203.719672 1818.444556,187.810529 1818.444556,35.661273" />
<polygon id="b1is_1" class="Sharp" points="1846.000000,363.554904 1873.555444,379.464046 1873.555444,531.613303 1846.000000,547.522445 1818.444556,531.613303 1818.444556,379.464046" />
<polygon id="b1is_2" class="Sharp" points="1846.000000,707.357677 1873.555444,723.266820 1873.555444,875.416076 1846.000000,891.325219 1818.444556,875.416076 1818.444556,723.266820" />
<polygon id="c2_0" class="Natural" points="1875.774194,191.653517 1903.329637,207.562660 1903.329637,359.711916 1875.774194,375.621059 1848.218750,359.711916 1848.218750,207.562660" />
<polygon id="c2_1" class="Natural" points="1875.774194,535.456290 1903.329637,551.365433 1903.329637,703.514689 1875.774194,719.423832 1848.218750,703.514689 1848.218750,551.365433" />
<polygon id="c2_2" class="Natural" points="1875.774194,879.259063 1903.329637,895.168206 1903.329637,1047.317462 1875.774194,1063.226605 1848.218750,1047.317462 1848.218750,895.168206" />
</g>
</svg>
